<svg width="33" height="33" viewBox="0 0 33 33" fill="none" xmlns="http://www.w3.org/2000/svg">
<path d="M16.7307 32.3333C25.567 32.3967 32.7816 25.2848 32.8449 16.4484C32.9083 7.61212 25.7964 0.39751 16.96 0.33417C8.12371 0.27083 0.909102 7.38274 0.845762 16.2191C0.782422 25.0554 7.89433 32.27 16.7307 32.3333Z" fill="#FFE600"/>
<path d="M24.8704 24.3002C20.4317 19.7028 13.1376 19.6694 8.65924 24.2315C8.08864 24.8126 8.97455 25.7133 9.5459 25.131C13.5501 21.0523 19.9994 21.0733 23.9709 25.1869C24.5375 25.7739 25.4365 24.8864 24.8704 24.3002Z" fill="#333333"/>
<path d="M12.0031 13.293C13.3909 13.303 14.5239 12.1861 14.5339 10.7983C14.5438 9.41054 13.4269 8.27747 12.0391 8.26752C10.6514 8.25758 9.5183 9.37451 9.50836 10.7623C9.49841 12.15 10.6153 13.2831 12.0031 13.293Z" fill="#333333"/>
<path d="M21.5051 13.3612C22.8928 13.3711 24.0259 12.2542 24.0358 10.8664C24.0458 9.47865 22.9288 8.34559 21.5411 8.33564C20.1533 8.32569 19.0203 9.44263 19.0103 10.8304C19.0004 12.2181 20.1173 13.3512 21.5051 13.3612Z" fill="#333333"/>
</svg>
