<svg width="32" height="32" viewBox="0 0 32 32" fill="none" xmlns="http://www.w3.org/2000/svg">
<path d="M16 32C24.8366 32 32 24.8366 32 16C32 7.16344 24.8366 0 16 0C7.16344 0 0 7.16344 0 16C0 24.8366 7.16344 32 16 32Z" fill="#F1F1F1"/>
<path d="M11.1364 12.9941C12.5242 12.9941 13.6492 11.8691 13.6492 10.4813C13.6492 9.09347 12.5242 7.96844 11.1364 7.96844C9.74856 7.96844 8.62354 9.09347 8.62354 10.4813C8.62354 11.8691 9.74856 12.9941 11.1364 12.9941Z" fill="#636363"/>
<path d="M20.6383 12.9941C22.0261 12.9941 23.1511 11.869 23.1511 10.4813C23.1511 9.09346 22.0261 7.96843 20.6383 7.96843C19.2505 7.96843 18.1255 9.09346 18.1255 10.4813C18.1255 11.869 19.2505 12.9941 20.6383 12.9941Z" fill="#636363"/>
<path d="M7.10897 22.0509C12.9418 22.0509 18.7746 22.0509 24.6077 22.0509C25.4223 22.0509 25.4223 20.7876 24.6077 20.7876C18.7749 20.7876 12.9421 20.7876 7.10897 20.7876C6.29441 20.7876 6.29441 22.0509 7.10897 22.0509Z" fill="#636363"/>
</svg>
