<svg width="32" height="32" viewBox="0 0 32 32" fill="none" xmlns="http://www.w3.org/2000/svg">
<path d="M16 32C24.8366 32 32 24.8366 32 16C32 7.16344 24.8366 0 16 0C7.16344 0 0 7.16344 0 16C0 24.8366 7.16344 32 16 32Z" fill="#FFE600"/>
<path d="M11.1368 12.9941C12.5246 12.9941 13.6497 11.8691 13.6497 10.4813C13.6497 9.09347 12.5246 7.96844 11.1368 7.96844C9.74905 7.96844 8.62402 9.09347 8.62402 10.4813C8.62402 11.8691 9.74905 12.9941 11.1368 12.9941Z" fill="#636363"/>
<path d="M20.6388 12.9941C22.0266 12.9941 23.1516 11.8691 23.1516 10.4813C23.1516 9.09347 22.0266 7.96844 20.6388 7.96844C19.251 7.96844 18.126 9.09347 18.126 10.4813C18.126 11.8691 19.251 12.9941 20.6388 12.9941Z" fill="#636363"/>
<path d="M23.1768 21.3945C19.1741 25.4679 12.7339 25.4358 8.76462 21.3339C8.19746 20.7474 7.30511 21.6418 7.87154 22.2269C12.3123 26.8163 19.596 26.8413 24.0699 22.2876C24.6411 21.7062 23.7482 20.8127 23.1768 21.3945Z" fill="#636363"/>
</svg>
