<svg width="32" height="32" viewBox="0 0 32 32" fill="none" xmlns="http://www.w3.org/2000/svg">
<path d="M16 32C24.8366 32 32 24.8366 32 16C32 7.16344 24.8366 0 16 0C7.16344 0 0 7.16344 0 16C0 24.8366 7.16344 32 16 32Z" fill="#F1F1F1"/>
<path d="M12.2966 7.42521C11.3423 7.42521 10.4559 7.89056 9.92298 8.66974L9.81306 8.80944L9.73953 8.71572C9.21274 7.90805 8.32471 7.42548 7.36066 7.42548C5.71566 7.42548 4.52197 8.61951 4.52197 10.264C4.52197 12.6921 8.91801 16.2711 9.2386 16.5288C9.38991 16.6735 9.58802 16.7531 9.79821 16.7531C10.0084 16.7531 10.2065 16.6738 10.3578 16.5286C10.6794 16.2688 15.1351 12.6338 15.1351 10.264C15.1351 8.61924 13.9413 7.42521 12.2966 7.42521Z" fill="#636363"/>
<path d="M24.759 7.42522C23.8047 7.42522 22.9183 7.89057 22.3854 8.66976L22.2755 8.80946L22.2019 8.71574C21.6751 7.90806 20.7871 7.42549 19.8231 7.42549C18.1781 7.42549 16.9844 8.61952 16.9844 10.264C16.9844 12.6921 21.3804 16.2711 21.701 16.5288C21.8523 16.6735 22.0504 16.7531 22.2606 16.7531C22.4705 16.7531 22.6686 16.6738 22.8202 16.5286C23.1416 16.2691 27.5972 12.6338 27.5972 10.264C27.5975 8.61925 26.4037 7.42522 24.759 7.42522Z" fill="#636363"/>
<path d="M23.1763 21.3945C19.1736 25.4676 12.7335 25.4358 8.76414 21.3338C8.19697 20.7477 7.30462 21.6418 7.87105 22.2269C12.3118 26.8162 19.5955 26.8407 24.0694 22.2876C24.6406 21.7065 23.7478 20.8129 23.1763 21.3945Z" fill="#636363"/>
</svg>
