<svg width="32" height="32" viewBox="0 0 32 32" fill="none" xmlns="http://www.w3.org/2000/svg">
<path d="M16 32C24.8366 32 32 24.8366 32 16C32 7.16344 24.8366 0 16 0C7.16344 0 0 7.16344 0 16C0 24.8366 7.16344 32 16 32Z" fill="#FFE600"/>
<path d="M12.2966 7.42523C11.3423 7.42523 10.4559 7.89058 9.92298 8.66976L9.81306 8.80946L9.73953 8.71575C9.21274 7.90807 8.32471 7.4255 7.36066 7.4255C5.71566 7.4255 4.52197 8.61953 4.52197 10.264C4.52197 12.6921 8.91801 16.2711 9.2386 16.5288C9.38991 16.6735 9.58802 16.7532 9.79821 16.7532C10.0084 16.7532 10.2065 16.6738 10.3578 16.5286C10.6794 16.2688 15.1351 12.6338 15.1351 10.264C15.1351 8.61926 13.9413 7.42523 12.2966 7.42523Z" fill="#ED3533"/>
<path d="M24.759 7.42523C23.8047 7.42523 22.9183 7.89058 22.3854 8.66976L22.2755 8.80946L22.2019 8.71575C21.6751 7.90807 20.7871 7.4255 19.8231 7.4255C18.1781 7.4255 16.9844 8.61953 16.9844 10.264C16.9844 12.6921 21.3804 16.2711 21.701 16.5288C21.8523 16.6735 22.0504 16.7532 22.2606 16.7532C22.4705 16.7532 22.6686 16.6738 22.8202 16.5286C23.1416 16.2691 27.5972 12.6338 27.5972 10.264C27.5975 8.61926 26.4037 7.42523 24.759 7.42523Z" fill="#ED3533"/>
<path d="M23.1763 21.3945C19.1736 25.4677 12.7335 25.4358 8.76414 21.3339C8.19697 20.7477 7.30462 21.6418 7.87105 22.227C12.3118 26.8162 19.5955 26.8408 24.0694 22.2876C24.6406 21.7065 23.7478 20.8129 23.1763 21.3945Z" fill="#333333"/>
</svg>
