<svg width="32" height="32" viewBox="0 0 32 32" fill="none" xmlns="http://www.w3.org/2000/svg">
<path d="M16 32C24.8366 32 32 24.8366 32 16C32 7.16344 24.8366 0 16 0C7.16344 0 0 7.16344 0 16C0 24.8366 7.16344 32 16 32Z" fill="#F1F1F1"/>
<path d="M24.0818 23.9088C19.61 19.3432 12.3164 19.3622 7.87056 23.9563C7.30413 24.5414 8.19648 25.4355 8.76365 24.8494C12.7385 20.7418 19.1873 20.7169 23.1887 24.8019C23.7594 25.3848 24.652 24.4909 24.0818 23.9088Z" fill="#333333"/>
<path d="M11.1359 12.9941C12.5237 12.9941 13.6487 11.869 13.6487 10.4812C13.6487 9.09345 12.5237 7.96842 11.1359 7.96842C9.74808 7.96842 8.62305 9.09345 8.62305 10.4812C8.62305 11.869 9.74808 12.9941 11.1359 12.9941Z" fill="#333333"/>
<path d="M20.6378 12.9941C22.0256 12.9941 23.1506 11.869 23.1506 10.4812C23.1506 9.09345 22.0256 7.96842 20.6378 7.96842C19.25 7.96842 18.125 9.09345 18.125 10.4812C18.125 11.869 19.25 12.9941 20.6378 12.9941Z" fill="#333333"/>
<path d="M23.1704 12.7351C23.1704 12.7351 21.3125 15.0222 21.3125 17.3817C21.3125 18.4082 22.1437 19.2399 23.1702 19.2402C24.1977 19.2397 25.0291 18.408 25.0291 17.3815C25.0291 16.239 23.1704 12.7351 23.1704 12.7351Z" fill="#333333"/>
</svg>
